<?xml version="1.0" encoding="UTF-8"?>
<svg version="1.1" xmlns="http://www.w3.org/2000/svg" width="512" height="512">
<path d="M0 0 C89.76 0 179.52 0 272 0 C272 5.28 272 10.56 272 16 C277.28 16 282.56 16 288 16 C288 21.28 288 26.56 288 32 C293.28 32 298.56 32 304 32 C304 47.84 304 63.68 304 80 C309.28 80 314.56 80 320 80 C320 95.84 320 111.68 320 128 C325.28 128 330.56 128 336 128 C336 159.68 336 191.36 336 224 C330.72 224 325.44 224 320 224 C320 234.56 320 245.12 320 256 C314.72 256 309.44 256 304 256 C304 261.28 304 266.56 304 272 C298.72 272 293.44 272 288 272 C288 277.28 288 282.56 288 288 C282.72 288 277.44 288 272 288 C272 293.28 272 298.56 272 304 C261.44 304 250.88 304 240 304 C240 309.28 240 314.56 240 320 C229.44 320 218.88 320 208 320 C208 325.28 208 330.56 208 336 C160.48 336 112.96 336 64 336 C64 330.72 64 325.44 64 320 C53.44 320 42.88 320 32 320 C32 314.72 32 309.44 32 304 C21.44 304 10.88 304 0 304 C0 298.72 0 293.44 0 288 C-5.28 288 -10.56 288 -16 288 C-16 282.72 -16 277.44 -16 272 C-21.28 272 -26.56 272 -32 272 C-32 266.72 -32 261.44 -32 256 C-37.28 256 -42.56 256 -48 256 C-48 250.72 -48 245.44 -48 240 C-53.28 240 -58.56 240 -64 240 C-64 203.04 -64 166.08 -64 128 C-58.72 128 -53.44 128 -48 128 C-48 112.16 -48 96.32 -48 80 C-42.72 80 -37.44 80 -32 80 C-32 64.16 -32 48.32 -32 32 C-26.72 32 -21.44 32 -16 32 C-16 26.72 -16 21.44 -16 16 C-10.72 16 -5.44 16 0 16 C0 10.72 0 5.44 0 0 Z " fill="#2000B2" transform="translate(120,96)"/>
<path d="M0 0 C21.12 0 42.24 0 64 0 C64 10.56 64 21.12 64 32 C69.28 32 74.56 32 80 32 C80 37.28 80 42.56 80 48 C85.28 48 90.56 48 96 48 C96 53.28 96 58.56 96 64 C101.28 64 106.56 64 112 64 C112 58.72 112 53.44 112 48 C117.28 48 122.56 48 128 48 C128 42.72 128 37.44 128 32 C133.28 32 138.56 32 144 32 C144 21.44 144 10.88 144 0 C165.12 0 186.24 0 208 0 C208 5.28 208 10.56 208 16 C213.28 16 218.56 16 224 16 C224 21.28 224 26.56 224 32 C229.28 32 234.56 32 240 32 C240 47.84 240 63.68 240 80 C245.28 80 250.56 80 256 80 C256 111.68 256 143.36 256 176 C250.72 176 245.44 176 240 176 C240 186.56 240 197.12 240 208 C229.44 208 218.88 208 208 208 C208 213.28 208 218.56 208 224 C202.72 224 197.44 224 192 224 C192 229.28 192 234.56 192 240 C186.72 240 181.44 240 176 240 C176 229.44 176 218.88 176 208 C181.28 208 186.56 208 192 208 C192 202.72 192 197.44 192 192 C197.28 192 202.56 192 208 192 C208 186.72 208 181.44 208 176 C213.28 176 218.56 176 224 176 C224 139.04 224 102.08 224 64 C197.6 64 171.2 64 144 64 C144 69.28 144 74.56 144 80 C138.72 80 133.44 80 128 80 C128 85.28 128 90.56 128 96 C122.72 96 117.44 96 112 96 C112 101.28 112 106.56 112 112 C106.72 112 101.44 112 96 112 C96 106.72 96 101.44 96 96 C90.72 96 85.44 96 80 96 C80 90.72 80 85.44 80 80 C74.72 80 69.44 80 64 80 C64 74.72 64 69.44 64 64 C37.6 64 11.2 64 -16 64 C-16 100.96 -16 137.92 -16 176 C-10.72 176 -5.44 176 0 176 C0 181.28 0 186.56 0 192 C5.28 192 10.56 192 16 192 C16 197.28 16 202.56 16 208 C0.16 208 -15.68 208 -32 208 C-32 202.72 -32 197.44 -32 192 C-37.28 192 -42.56 192 -48 192 C-48 155.04 -48 118.08 -48 80 C-42.72 80 -37.44 80 -32 80 C-32 64.16 -32 48.32 -32 32 C-26.72 32 -21.44 32 -16 32 C-16 26.72 -16 21.44 -16 16 C-10.72 16 -5.44 16 0 16 C0 10.72 0 5.44 0 0 Z " fill="#305182" transform="translate(152,144)"/>
<path d="M0 0 C26.4 0 52.8 0 80 0 C80 5.28 80 10.56 80 16 C85.28 16 90.56 16 96 16 C96 21.28 96 26.56 96 32 C101.28 32 106.56 32 112 32 C112 37.28 112 42.56 112 48 C117.28 48 122.56 48 128 48 C128 42.72 128 37.44 128 32 C133.28 32 138.56 32 144 32 C144 26.72 144 21.44 144 16 C149.28 16 154.56 16 160 16 C160 10.72 160 5.44 160 0 C186.4 0 212.8 0 240 0 C240 26.4 240 52.8 240 80 C234.72 80 229.44 80 224 80 C224 85.28 224 90.56 224 96 C213.44 96 202.88 96 192 96 C192 101.28 192 106.56 192 112 C144.48 112 96.96 112 48 112 C48 106.72 48 101.44 48 96 C37.44 96 26.88 96 16 96 C16 90.72 16 85.44 16 80 C10.72 80 5.44 80 0 80 C0 53.6 0 27.2 0 0 Z " fill="#797979" transform="translate(136,208)"/>
<path d="M0 0 C5.28 0 10.56 0 16 0 C16 5.28 16 10.56 16 16 C26.56 16 37.12 16 48 16 C48 21.28 48 26.56 48 32 C95.52 32 143.04 32 192 32 C192 26.72 192 21.44 192 16 C202.56 16 213.12 16 224 16 C224 10.72 224 5.44 224 0 C229.28 0 234.56 0 240 0 C240 10.56 240 21.12 240 32 C234.72 32 229.44 32 224 32 C224 37.28 224 42.56 224 48 C218.72 48 213.44 48 208 48 C208 53.28 208 58.56 208 64 C202.72 64 197.44 64 192 64 C192 74.56 192 85.12 192 96 C197.28 96 202.56 96 208 96 C208 90.72 208 85.44 208 80 C218.56 80 229.12 80 240 80 C240 85.28 240 90.56 240 96 C234.72 96 229.44 96 224 96 C224 106.56 224 117.12 224 128 C213.44 128 202.88 128 192 128 C192 133.28 192 138.56 192 144 C144.48 144 96.96 144 48 144 C48 128.16 48 112.32 48 96 C42.72 96 37.44 96 32 96 C32 80.16 32 64.32 32 48 C26.72 48 21.44 48 16 48 C16 42.72 16 37.44 16 32 C10.72 32 5.44 32 0 32 C0 21.44 0 10.88 0 0 Z " fill="#305182" transform="translate(136,288)"/>
<path d="M0 0 C5.28 0 10.56 0 16 0 C16 15.84 16 31.68 16 48 C21.28 48 26.56 48 32 48 C32 63.84 32 79.68 32 96 C26.72 96 21.44 96 16 96 C16 132.96 16 169.92 16 208 C21.28 208 26.56 208 32 208 C32 213.28 32 218.56 32 224 C47.84 224 63.68 224 80 224 C80 234.56 80 245.12 80 256 C85.28 256 90.56 256 96 256 C96 266.56 96 277.12 96 288 C85.44 288 74.88 288 64 288 C64 282.72 64 277.44 64 272 C53.44 272 42.88 272 32 272 C32 266.72 32 261.44 32 256 C26.72 256 21.44 256 16 256 C16 250.72 16 245.44 16 240 C10.72 240 5.44 240 0 240 C0 234.72 0 229.44 0 224 C-5.28 224 -10.56 224 -16 224 C-16 218.72 -16 213.44 -16 208 C-21.28 208 -26.56 208 -32 208 C-32 171.04 -32 134.08 -32 96 C-26.72 96 -21.44 96 -16 96 C-16 80.16 -16 64.32 -16 48 C-10.72 48 -5.44 48 0 48 C0 32.16 0 16.32 0 0 Z " fill="#2000B2" transform="translate(88,128)"/>
<path d="M0 0 C5.28 0 10.56 0 16 0 C16 15.84 16 31.68 16 48 C21.28 48 26.56 48 32 48 C32 63.84 32 79.68 32 96 C37.28 96 42.56 96 48 96 C48 127.68 48 159.36 48 192 C42.72 192 37.44 192 32 192 C32 202.56 32 213.12 32 224 C26.72 224 21.44 224 16 224 C16 229.28 16 234.56 16 240 C10.72 240 5.44 240 0 240 C0 245.28 0 250.56 0 256 C-5.28 256 -10.56 256 -16 256 C-16 261.28 -16 266.56 -16 272 C-26.56 272 -37.12 272 -48 272 C-48 266.72 -48 261.44 -48 256 C-42.72 256 -37.44 256 -32 256 C-32 250.72 -32 245.44 -32 240 C-37.28 240 -42.56 240 -48 240 C-48 234.72 -48 229.44 -48 224 C-37.44 224 -26.88 224 -16 224 C-16 213.44 -16 202.88 -16 192 C-10.72 192 -5.44 192 0 192 C0 160.32 0 128.64 0 96 C-5.28 96 -10.56 96 -16 96 C-16 80.16 -16 64.32 -16 48 C-10.72 48 -5.44 48 0 48 C0 32.16 0 16.32 0 0 Z " fill="#797979" transform="translate(408,128)"/>
<path d="M0 0 C15.84 0 31.68 0 48 0 C48 5.28 48 10.56 48 16 C95.52 16 143.04 16 192 16 C192 10.72 192 5.44 192 0 C207.84 0 223.68 0 240 0 C240 10.56 240 21.12 240 32 C234.72 32 229.44 32 224 32 C224 37.28 224 42.56 224 48 C213.44 48 202.88 48 192 48 C192 53.28 192 58.56 192 64 C144.48 64 96.96 64 48 64 C48 58.72 48 53.44 48 48 C37.44 48 26.88 48 16 48 C16 42.72 16 37.44 16 32 C10.72 32 5.44 32 0 32 C0 21.44 0 10.88 0 0 Z " fill="#DB41C3" transform="translate(136,256)"/>
<path d="M0 0 C21.12 0 42.24 0 64 0 C64 5.28 64 10.56 64 16 C69.28 16 74.56 16 80 16 C80 21.28 80 26.56 80 32 C85.28 32 90.56 32 96 32 C96 47.84 96 63.68 96 80 C101.28 80 106.56 80 112 80 C112 111.68 112 143.36 112 176 C106.72 176 101.44 176 96 176 C96 186.56 96 197.12 96 208 C85.44 208 74.88 208 64 208 C64 213.28 64 218.56 64 224 C58.72 224 53.44 224 48 224 C48 229.28 48 234.56 48 240 C42.72 240 37.44 240 32 240 C32 229.44 32 218.88 32 208 C37.28 208 42.56 208 48 208 C48 202.72 48 197.44 48 192 C53.28 192 58.56 192 64 192 C64 186.72 64 181.44 64 176 C69.28 176 74.56 176 80 176 C80 139.04 80 102.08 80 64 C74.72 64 69.44 64 64 64 C64 53.44 64 42.88 64 32 C58.72 32 53.44 32 48 32 C48 26.72 48 21.44 48 16 C32.16 16 16.32 16 0 16 C0 10.72 0 5.44 0 0 Z " fill="#000000" transform="translate(296,144)"/>
<path d="M0 0 C21.12 0 42.24 0 64 0 C64 5.28 64 10.56 64 16 C48.16 16 32.32 16 16 16 C16 21.28 16 26.56 16 32 C10.72 32 5.44 32 0 32 C0 42.56 0 53.12 0 64 C-5.28 64 -10.56 64 -16 64 C-16 100.96 -16 137.92 -16 176 C-10.72 176 -5.44 176 0 176 C0 181.28 0 186.56 0 192 C5.28 192 10.56 192 16 192 C16 197.28 16 202.56 16 208 C0.16 208 -15.68 208 -32 208 C-32 202.72 -32 197.44 -32 192 C-37.28 192 -42.56 192 -48 192 C-48 155.04 -48 118.08 -48 80 C-42.72 80 -37.44 80 -32 80 C-32 64.16 -32 48.32 -32 32 C-26.72 32 -21.44 32 -16 32 C-16 26.72 -16 21.44 -16 16 C-10.72 16 -5.44 16 0 16 C0 10.72 0 5.44 0 0 Z " fill="#000000" transform="translate(152,144)"/>
<path d="M0 0 C5.28 0 10.56 0 16 0 C16 15.84 16 31.68 16 48 C21.28 48 26.56 48 32 48 C32 63.84 32 79.68 32 96 C26.72 96 21.44 96 16 96 C16 132.96 16 169.92 16 208 C10.72 208 5.44 208 0 208 C0 171.04 0 134.08 0 96 C-5.28 96 -10.56 96 -16 96 C-16 80.16 -16 64.32 -16 48 C-10.72 48 -5.44 48 0 48 C0 32.16 0 16.32 0 0 Z " fill="#2000B2" transform="translate(88,128)"/>
<path d="M0 0 C5.28 0 10.56 0 16 0 C16 15.84 16 31.68 16 48 C21.28 48 26.56 48 32 48 C32 63.84 32 79.68 32 96 C26.72 96 21.44 96 16 96 C16 127.68 16 159.36 16 192 C10.72 192 5.44 192 0 192 C0 160.32 0 128.64 0 96 C-5.28 96 -10.56 96 -16 96 C-16 80.16 -16 64.32 -16 48 C-10.72 48 -5.44 48 0 48 C0 32.16 0 16.32 0 0 Z " fill="#2000B2" transform="translate(408,128)"/>
<path d="M0 0 C89.76 0 179.52 0 272 0 C272 5.28 272 10.56 272 16 C182.24 16 92.48 16 0 16 C0 10.72 0 5.44 0 0 Z " fill="#B2B2B2" transform="translate(120,96)"/>
<path d="M0 0 C15.84 0 31.68 0 48 0 C48 10.56 48 21.12 48 32 C53.28 32 58.56 32 64 32 C64 42.56 64 53.12 64 64 C53.44 64 42.88 64 32 64 C32 58.72 32 53.44 32 48 C21.44 48 10.88 48 0 48 C0 42.72 0 37.44 0 32 C-5.28 32 -10.56 32 -16 32 C-16 26.72 -16 21.44 -16 16 C-10.72 16 -5.44 16 0 16 C0 10.72 0 5.44 0 0 Z " fill="#797979" transform="translate(120,352)"/>
<path d="M0 0 C47.52 0 95.04 0 144 0 C144 5.28 144 10.56 144 16 C96.48 16 48.96 16 0 16 C0 10.72 0 5.44 0 0 Z " fill="#B2B2B2" transform="translate(184,416)"/>
<path d="M0 0 C47.52 0 95.04 0 144 0 C144 5.28 144 10.56 144 16 C96.48 16 48.96 16 0 16 C0 10.72 0 5.44 0 0 Z " fill="#797979" transform="translate(184,320)"/>
<path d="M0 0 C47.52 0 95.04 0 144 0 C144 5.28 144 10.56 144 16 C96.48 16 48.96 16 0 16 C0 10.72 0 5.44 0 0 Z " fill="#DB41C3" transform="translate(184,304)"/>
<path d="M0 0 C47.52 0 95.04 0 144 0 C144 5.28 144 10.56 144 16 C96.48 16 48.96 16 0 16 C0 10.72 0 5.44 0 0 Z " fill="#FFFFFF" transform="translate(184,288)"/>
<path d="M0 0 C15.84 0 31.68 0 48 0 C48 10.56 48 21.12 48 32 C42.72 32 37.44 32 32 32 C32 37.28 32 42.56 32 48 C21.44 48 10.88 48 0 48 C0 32.16 0 16.32 0 0 Z " fill="#DB41C3" transform="translate(328,256)"/>
<path d="M0 0 C15.84 0 31.68 0 48 0 C48 15.84 48 31.68 48 48 C37.44 48 26.88 48 16 48 C16 42.72 16 37.44 16 32 C10.72 32 5.44 32 0 32 C0 21.44 0 10.88 0 0 Z " fill="#DB41C3" transform="translate(136,256)"/>
<path d="M0 0 C36.96 0 73.92 0 112 0 C112 5.28 112 10.56 112 16 C75.04 16 38.08 16 0 16 C0 10.72 0 5.44 0 0 Z " fill="#000000" transform="translate(200,400)"/>
<path d="M0 0 C5.28 0 10.56 0 16 0 C16 36.96 16 73.92 16 112 C10.72 112 5.44 112 0 112 C0 75.04 0 38.08 0 0 Z " fill="#797979" transform="translate(88,224)"/>
<path d="M0 0 C5.28 0 10.56 0 16 0 C16 36.96 16 73.92 16 112 C10.72 112 5.44 112 0 112 C0 75.04 0 38.08 0 0 Z " fill="#B2B2B2" transform="translate(56,224)"/>
<path d="M0 0 C5.28 0 10.56 0 16 0 C16 31.68 16 63.36 16 96 C10.72 96 5.44 96 0 96 C0 64.32 0 32.64 0 0 Z " fill="#B2B2B2" transform="translate(440,224)"/>
<path d="M0 0 C5.28 0 10.56 0 16 0 C16 31.68 16 63.36 16 96 C10.72 96 5.44 96 0 96 C0 64.32 0 32.64 0 0 Z " fill="#2000B2" transform="translate(424,224)"/>
<path d="M0 0 C5.28 0 10.56 0 16 0 C16 31.68 16 63.36 16 96 C10.72 96 5.44 96 0 96 C0 64.32 0 32.64 0 0 Z " fill="#797979" transform="translate(408,224)"/>
<path d="M0 0 C10.56 0 21.12 0 32 0 C32 5.28 32 10.56 32 16 C26.72 16 21.44 16 16 16 C16 21.28 16 26.56 16 32 C5.44 32 -5.12 32 -16 32 C-16 26.72 -16 21.44 -16 16 C-10.72 16 -5.44 16 0 16 C0 10.72 0 5.44 0 0 Z " fill="#B2B2B2" transform="translate(376,368)"/>
<path d="M0 0 C10.56 0 21.12 0 32 0 C32 5.28 32 10.56 32 16 C37.28 16 42.56 16 48 16 C48 21.28 48 26.56 48 32 C37.44 32 26.88 32 16 32 C16 26.72 16 21.44 16 16 C10.72 16 5.44 16 0 16 C0 10.72 0 5.44 0 0 Z " fill="#B2B2B2" transform="translate(104,368)"/>
<path d="M0 0 C5.28 0 10.56 0 16 0 C16 10.56 16 21.12 16 32 C0.16 32 -15.68 32 -32 32 C-32 26.72 -32 21.44 -32 16 C-21.44 16 -10.88 16 0 16 C0 10.72 0 5.44 0 0 Z " fill="#305182" transform="translate(360,288)"/>
<path d="M0 0 C5.28 0 10.56 0 16 0 C16 5.28 16 10.56 16 16 C26.56 16 37.12 16 48 16 C48 21.28 48 26.56 48 32 C32.16 32 16.32 32 0 32 C0 21.44 0 10.88 0 0 Z " fill="#797979" transform="translate(136,288)"/>
<path d="M0 0 C21.12 0 42.24 0 64 0 C64 5.28 64 10.56 64 16 C42.88 16 21.76 16 0 16 C0 10.72 0 5.44 0 0 Z " fill="#B2B2B2" transform="translate(296,208)"/>
<path d="M0 0 C21.12 0 42.24 0 64 0 C64 5.28 64 10.56 64 16 C42.88 16 21.76 16 0 16 C0 10.72 0 5.44 0 0 Z " fill="#B2B2B2" transform="translate(152,208)"/>
<path d="M0 0 C5.28 0 10.56 0 16 0 C16 15.84 16 31.68 16 48 C10.72 48 5.44 48 0 48 C0 32.16 0 16.32 0 0 Z " fill="#A2A2A2" transform="translate(360,208)"/>
<path d="M0 0 C5.28 0 10.56 0 16 0 C16 15.84 16 31.68 16 48 C10.72 48 5.44 48 0 48 C0 32.16 0 16.32 0 0 Z " fill="#A2A2A2" transform="translate(136,208)"/>
<path d="M0 0 C5.28 0 10.56 0 16 0 C16 15.84 16 31.68 16 48 C10.72 48 5.44 48 0 48 C0 32.16 0 16.32 0 0 Z " fill="#B2B2B2" transform="translate(424,176)"/>
<path d="M0 0 C5.28 0 10.56 0 16 0 C16 15.84 16 31.68 16 48 C10.72 48 5.44 48 0 48 C0 32.16 0 16.32 0 0 Z " fill="#797979" transform="translate(392,176)"/>
<path d="M0 0 C5.28 0 10.56 0 16 0 C16 15.84 16 31.68 16 48 C10.72 48 5.44 48 0 48 C0 32.16 0 16.32 0 0 Z " fill="#797979" transform="translate(104,176)"/>
<path d="M0 0 C5.28 0 10.56 0 16 0 C16 15.84 16 31.68 16 48 C10.72 48 5.44 48 0 48 C0 32.16 0 16.32 0 0 Z " fill="#B2B2B2" transform="translate(72,176)"/>
<path d="M0 0 C10.56 0 21.12 0 32 0 C32 10.56 32 21.12 32 32 C26.72 32 21.44 32 16 32 C16 26.72 16 21.44 16 16 C10.72 16 5.44 16 0 16 C0 10.72 0 5.44 0 0 Z " fill="#797979" transform="translate(360,144)"/>
<path d="M0 0 C10.56 0 21.12 0 32 0 C32 5.28 32 10.56 32 16 C26.72 16 21.44 16 16 16 C16 21.28 16 26.56 16 32 C10.72 32 5.44 32 0 32 C0 21.44 0 10.88 0 0 Z " fill="#797979" transform="translate(120,144)"/>
<path d="M0 0 C5.28 0 10.56 0 16 0 C16 15.84 16 31.68 16 48 C10.72 48 5.44 48 0 48 C0 32.16 0 16.32 0 0 Z " fill="#B2B2B2" transform="translate(408,128)"/>
<path d="M0 0 C5.28 0 10.56 0 16 0 C16 15.84 16 31.68 16 48 C10.72 48 5.44 48 0 48 C0 32.16 0 16.32 0 0 Z " fill="#B2B2B2" transform="translate(88,128)"/>
<path d="M0 0 C10.56 0 21.12 0 32 0 C32 5.28 32 10.56 32 16 C21.44 16 10.88 16 0 16 C0 10.72 0 5.44 0 0 Z " fill="#B2B2B2" transform="translate(328,400)"/>
<path d="M0 0 C10.56 0 21.12 0 32 0 C32 5.28 32 10.56 32 16 C21.44 16 10.88 16 0 16 C0 10.72 0 5.44 0 0 Z " fill="#B2B2B2" transform="translate(152,400)"/>
<path d="M0 0 C10.56 0 21.12 0 32 0 C32 5.28 32 10.56 32 16 C21.44 16 10.88 16 0 16 C0 10.72 0 5.44 0 0 Z " fill="#797979" transform="translate(152,384)"/>
<path d="M0 0 C10.56 0 21.12 0 32 0 C32 5.28 32 10.56 32 16 C21.44 16 10.88 16 0 16 C0 10.72 0 5.44 0 0 Z " fill="#2000B2" transform="translate(344,368)"/>
<path d="M0 0 C10.56 0 21.12 0 32 0 C32 5.28 32 10.56 32 16 C21.44 16 10.88 16 0 16 C0 10.72 0 5.44 0 0 Z " fill="#797979" transform="translate(360,352)"/>
<path d="M0 0 C5.28 0 10.56 0 16 0 C16 10.56 16 21.12 16 32 C10.72 32 5.44 32 0 32 C0 21.44 0 10.88 0 0 Z " fill="#000000" transform="translate(168,352)"/>
<path d="M0 0 C5.28 0 10.56 0 16 0 C16 10.56 16 21.12 16 32 C10.72 32 5.44 32 0 32 C0 21.44 0 10.88 0 0 Z " fill="#B2B2B2" transform="translate(424,320)"/>
<path d="M0 0 C5.28 0 10.56 0 16 0 C16 10.56 16 21.12 16 32 C10.72 32 5.44 32 0 32 C0 21.44 0 10.88 0 0 Z " fill="#2000B2" transform="translate(408,320)"/>
<path d="M0 0 C10.56 0 21.12 0 32 0 C32 5.28 32 10.56 32 16 C21.44 16 10.88 16 0 16 C0 10.72 0 5.44 0 0 Z " fill="#797979" transform="translate(328,304)"/>
<path d="M0 0 C5.28 0 10.56 0 16 0 C16 10.56 16 21.12 16 32 C10.72 32 5.44 32 0 32 C0 21.44 0 10.88 0 0 Z " fill="#305182" transform="translate(136,288)"/>
<path d="M0 0 C10.56 0 21.12 0 32 0 C32 5.28 32 10.56 32 16 C21.44 16 10.88 16 0 16 C0 10.72 0 5.44 0 0 Z " fill="#DB41C3" transform="translate(328,288)"/>
<path d="M0 0 C10.56 0 21.12 0 32 0 C32 5.28 32 10.56 32 16 C21.44 16 10.88 16 0 16 C0 10.72 0 5.44 0 0 Z " fill="#DB41C3" transform="translate(152,288)"/>
<path d="M0 0 C10.56 0 21.12 0 32 0 C32 5.28 32 10.56 32 16 C21.44 16 10.88 16 0 16 C0 10.72 0 5.44 0 0 Z " fill="#FFFFFF" transform="translate(328,272)"/>
<path d="M0 0 C10.56 0 21.12 0 32 0 C32 5.28 32 10.56 32 16 C21.44 16 10.88 16 0 16 C0 10.72 0 5.44 0 0 Z " fill="#FFFFFF" transform="translate(152,272)"/>
<path d="M0 0 C5.28 0 10.56 0 16 0 C16 5.28 16 10.56 16 16 C10.72 16 5.44 16 0 16 C0 10.72 0 5.44 0 0 Z " fill="#797979" transform="translate(312,400)"/>
<path d="M0 0 C5.28 0 10.56 0 16 0 C16 5.28 16 10.56 16 16 C10.72 16 5.44 16 0 16 C0 10.72 0 5.44 0 0 Z " fill="#797979" transform="translate(184,400)"/>
<path d="M0 0 C5.28 0 10.56 0 16 0 C16 5.28 16 10.56 16 16 C10.72 16 5.44 16 0 16 C0 10.72 0 5.44 0 0 Z " fill="#E35100" transform="translate(344,384)"/>
<path d="M0 0 C5.28 0 10.56 0 16 0 C16 5.28 16 10.56 16 16 C10.72 16 5.44 16 0 16 C0 10.72 0 5.44 0 0 Z " fill="#797979" transform="translate(328,384)"/>
<path d="M0 0 C5.28 0 10.56 0 16 0 C16 5.28 16 10.56 16 16 C10.72 16 5.44 16 0 16 C0 10.72 0 5.44 0 0 Z " fill="#000000" transform="translate(312,384)"/>
<path d="M0 0 C5.28 0 10.56 0 16 0 C16 5.28 16 10.56 16 16 C10.72 16 5.44 16 0 16 C0 10.72 0 5.44 0 0 Z " fill="#000000" transform="translate(184,384)"/>
<path d="M0 0 C5.28 0 10.56 0 16 0 C16 5.28 16 10.56 16 16 C10.72 16 5.44 16 0 16 C0 10.72 0 5.44 0 0 Z " fill="#E35100" transform="translate(152,384)"/>
<path d="M0 0 C5.28 0 10.56 0 16 0 C16 5.28 16 10.56 16 16 C10.72 16 5.44 16 0 16 C0 10.72 0 5.44 0 0 Z " fill="#797979" transform="translate(344,368)"/>
<path d="M0 0 C5.28 0 10.56 0 16 0 C16 5.28 16 10.56 16 16 C10.72 16 5.44 16 0 16 C0 10.72 0 5.44 0 0 Z " fill="#2000B2" transform="translate(136,368)"/>
<path d="M0 0 C5.28 0 10.56 0 16 0 C16 5.28 16 10.56 16 16 C10.72 16 5.44 16 0 16 C0 10.72 0 5.44 0 0 Z " fill="#B2B2B2" transform="translate(408,352)"/>
<path d="M0 0 C5.28 0 10.56 0 16 0 C16 5.28 16 10.56 16 16 C10.72 16 5.44 16 0 16 C0 10.72 0 5.44 0 0 Z " fill="#2000B2" transform="translate(392,352)"/>
<path d="M0 0 C5.28 0 10.56 0 16 0 C16 5.28 16 10.56 16 16 C10.72 16 5.44 16 0 16 C0 10.72 0 5.44 0 0 Z " fill="#2000B2" transform="translate(104,352)"/>
<path d="M0 0 C5.28 0 10.56 0 16 0 C16 5.28 16 10.56 16 16 C10.72 16 5.44 16 0 16 C0 10.72 0 5.44 0 0 Z " fill="#B2B2B2" transform="translate(88,352)"/>
<path d="M0 0 C5.28 0 10.56 0 16 0 C16 5.28 16 10.56 16 16 C10.72 16 5.44 16 0 16 C0 10.72 0 5.44 0 0 Z " fill="#797979" transform="translate(104,336)"/>
<path d="M0 0 C5.28 0 10.56 0 16 0 C16 5.28 16 10.56 16 16 C10.72 16 5.44 16 0 16 C0 10.72 0 5.44 0 0 Z " fill="#2000B2" transform="translate(88,336)"/>
<path d="M0 0 C5.28 0 10.56 0 16 0 C16 5.28 16 10.56 16 16 C10.72 16 5.44 16 0 16 C0 10.72 0 5.44 0 0 Z " fill="#B2B2B2" transform="translate(72,336)"/>
<path d="M0 0 C5.28 0 10.56 0 16 0 C16 5.28 16 10.56 16 16 C10.72 16 5.44 16 0 16 C0 10.72 0 5.44 0 0 Z " fill="#797979" transform="translate(360,288)"/>
<path d="M0 0 C5.28 0 10.56 0 16 0 C16 5.28 16 10.56 16 16 C10.72 16 5.44 16 0 16 C0 10.72 0 5.44 0 0 Z " fill="#797979" transform="translate(136,288)"/>
<path d="M0 0 C5.28 0 10.56 0 16 0 C16 5.28 16 10.56 16 16 C10.72 16 5.44 16 0 16 C0 10.72 0 5.44 0 0 Z " fill="#DB41C3" transform="translate(360,272)"/>
<path d="M0 0 C5.28 0 10.56 0 16 0 C16 5.28 16 10.56 16 16 C10.72 16 5.44 16 0 16 C0 10.72 0 5.44 0 0 Z " fill="#DB41C3" transform="translate(136,272)"/>
<path d="M0 0 C5.28 0 10.56 0 16 0 C16 5.28 16 10.56 16 16 C10.72 16 5.44 16 0 16 C0 10.72 0 5.44 0 0 Z " fill="#FFFFFF" transform="translate(360,256)"/>
<path d="M0 0 C5.28 0 10.56 0 16 0 C16 5.28 16 10.56 16 16 C10.72 16 5.44 16 0 16 C0 10.72 0 5.44 0 0 Z " fill="#B2B2B2" transform="translate(248,256)"/>
<path d="M0 0 C5.28 0 10.56 0 16 0 C16 5.28 16 10.56 16 16 C10.72 16 5.44 16 0 16 C0 10.72 0 5.44 0 0 Z " fill="#FFFFFF" transform="translate(136,256)"/>
<path d="M0 0 C5.28 0 10.56 0 16 0 C16 5.28 16 10.56 16 16 C10.72 16 5.44 16 0 16 C0 10.72 0 5.44 0 0 Z " fill="#DB41C3" transform="translate(360,240)"/>
<path d="M0 0 C5.28 0 10.56 0 16 0 C16 5.28 16 10.56 16 16 C10.72 16 5.44 16 0 16 C0 10.72 0 5.44 0 0 Z " fill="#B2B2B2" transform="translate(264,240)"/>
<path d="M0 0 C5.28 0 10.56 0 16 0 C16 5.28 16 10.56 16 16 C10.72 16 5.44 16 0 16 C0 10.72 0 5.44 0 0 Z " fill="#B2B2B2" transform="translate(232,240)"/>
<path d="M0 0 C5.28 0 10.56 0 16 0 C16 5.28 16 10.56 16 16 C10.72 16 5.44 16 0 16 C0 10.72 0 5.44 0 0 Z " fill="#DB41C3" transform="translate(136,240)"/>
<path d="M0 0 C5.28 0 10.56 0 16 0 C16 5.28 16 10.56 16 16 C10.72 16 5.44 16 0 16 C0 10.72 0 5.44 0 0 Z " fill="#B2B2B2" transform="translate(280,224)"/>
<path d="M0 0 C5.28 0 10.56 0 16 0 C16 5.28 16 10.56 16 16 C10.72 16 5.44 16 0 16 C0 10.72 0 5.44 0 0 Z " fill="#B2B2B2" transform="translate(216,224)"/>
<path d="M0 0 C5.28 0 10.56 0 16 0 C16 5.28 16 10.56 16 16 C10.72 16 5.44 16 0 16 C0 10.72 0 5.44 0 0 Z " fill="#305182" transform="translate(360,208)"/>
<path d="M0 0 C5.28 0 10.56 0 16 0 C16 5.28 16 10.56 16 16 C10.72 16 5.44 16 0 16 C0 10.72 0 5.44 0 0 Z " fill="#305182" transform="translate(136,208)"/>
<path d="M0 0 C5.28 0 10.56 0 16 0 C16 5.28 16 10.56 16 16 C10.72 16 5.44 16 0 16 C0 10.72 0 5.44 0 0 Z " fill="#000000" transform="translate(248,192)"/>
<path d="M0 0 C5.28 0 10.56 0 16 0 C16 5.28 16 10.56 16 16 C10.72 16 5.44 16 0 16 C0 10.72 0 5.44 0 0 Z " fill="#000000" transform="translate(264,176)"/>
<path d="M0 0 C5.28 0 10.56 0 16 0 C16 5.28 16 10.56 16 16 C10.72 16 5.44 16 0 16 C0 10.72 0 5.44 0 0 Z " fill="#000000" transform="translate(232,176)"/>
<path d="M0 0 C5.28 0 10.56 0 16 0 C16 5.28 16 10.56 16 16 C10.72 16 5.44 16 0 16 C0 10.72 0 5.44 0 0 Z " fill="#000000" transform="translate(280,160)"/>
<path d="M0 0 C5.28 0 10.56 0 16 0 C16 5.28 16 10.56 16 16 C10.72 16 5.44 16 0 16 C0 10.72 0 5.44 0 0 Z " fill="#000000" transform="translate(216,160)"/>
<path d="M0 0 C5.28 0 10.56 0 16 0 C16 5.28 16 10.56 16 16 C10.72 16 5.44 16 0 16 C0 10.72 0 5.44 0 0 Z " fill="#797979" transform="translate(344,128)"/>
<path d="M0 0 C5.28 0 10.56 0 16 0 C16 5.28 16 10.56 16 16 C10.72 16 5.44 16 0 16 C0 10.72 0 5.44 0 0 Z " fill="#797979" transform="translate(152,128)"/>
<path d="M0 0 C5.28 0 10.56 0 16 0 C16 5.28 16 10.56 16 16 C10.72 16 5.44 16 0 16 C0 10.72 0 5.44 0 0 Z " fill="#B2B2B2" transform="translate(392,112)"/>
<path d="M0 0 C5.28 0 10.56 0 16 0 C16 5.28 16 10.56 16 16 C10.72 16 5.44 16 0 16 C0 10.72 0 5.44 0 0 Z " fill="#B2B2B2" transform="translate(104,112)"/>
</svg>
